<svg width="2728" height="265" viewBox="0 0 2728 265" fill="none" xmlns="http://www.w3.org/2000/svg">
<path d="M867.165 254.11C865.665 254.885 864.272 255.849 863.017 256.977C861.741 255.843 860.324 254.88 858.801 254.11C857.301 254.885 855.907 255.849 854.653 256.977C853.377 255.843 851.96 254.88 850.436 254.11C850.436 254.11 843.935 257.308 843.953 261.215C843.953 261.313 843.958 261.41 843.966 261.507C844.188 264.065 850.91 264.717 854.603 263.511C857.336 264.291 860.233 264.291 862.967 263.511C866.644 264.736 873.502 264.035 873.703 261.447C873.71 261.35 873.714 261.253 873.713 261.155C873.695 257.248 867.165 254.11 867.165 254.11Z" fill="#F2F2F2"/>
<path d="M5.97201 119.7L0.20401 115.086L32.501 86.2498H114.397V111.626L61.338 147.383L5.97201 119.7Z" fill="#3F3D56"/>
<path d="M129.329 102.425V86.8257H118.456V90.6458L114.397 86.2498L87.868 115.086L77.487 122.007L61.39 239.608L85.665 263.883H142.081V116.24L129.329 102.425Z" fill="#CCCCCC"/>
<path d="M87.8677 115.086H0.204285V263.883H87.8677V115.086Z" fill="#F2F2F2"/>
<path d="M50.3801 227.549H34.2315V263.883H50.3801V227.549Z" fill="#CCCCCC"/>
<path d="M16.93 237.93V232.163H10.009V237.93H16.353H16.93Z" fill="#3F3D56"/>
<path d="M16.353 242.544H10.009V248.312H16.93V242.544H16.353Z" fill="#3F3D56"/>
<path d="M28.4642 232.163H21.5434V237.93H28.4642V232.163Z" fill="#3F3D56"/>
<path d="M28.4642 242.544H21.5434V248.312H28.4642V242.544Z" fill="#3F3D56"/>
<path d="M64.222 237.93V232.163H57.301V237.93H63.645H64.222Z" fill="#3F3D56"/>
<path d="M63.645 242.544H57.301V248.312H64.222V242.544H63.645Z" fill="#3F3D56"/>
<path d="M75.7563 232.163H68.8355V237.93H75.7563V232.163Z" fill="#3F3D56"/>
<path d="M75.7563 242.544H68.8355V248.312H75.7563V242.544Z" fill="#3F3D56"/>
<path d="M112.667 122.584V116.816H105.746V122.584H112.091H112.667Z" fill="#3F3D56"/>
<path d="M112.091 127.198H105.746V132.965H112.667V127.198H112.091Z" fill="#3F3D56"/>
<path d="M124.202 116.816H117.281V122.583H124.202V116.816Z" fill="#3F3D56"/>
<path d="M124.202 127.198H117.281V132.965H124.202V127.198Z" fill="#3F3D56"/>
<path d="M112.667 154.881V149.114H105.746V154.881H112.091H112.667Z" fill="#3F3D56"/>
<path d="M112.091 159.495H105.746V165.262H112.667V159.495H112.091Z" fill="#3F3D56"/>
<path d="M124.202 149.113H117.281V154.881H124.202V149.113Z" fill="#3F3D56"/>
<path d="M124.202 159.495H117.281V165.262H124.202V159.495Z" fill="#3F3D56"/>
<path d="M112.667 187.178V181.411H105.746V187.178H112.091H112.667Z" fill="#3F3D56"/>
<path d="M112.091 191.792H105.746V197.559H112.667V191.792H112.091Z" fill="#3F3D56"/>
<path d="M124.202 181.41H117.281V187.178H124.202V181.41Z" fill="#3F3D56"/>
<path d="M124.202 191.792H117.281V197.559H124.202V191.792Z" fill="#3F3D56"/>
<path d="M112.667 219.475V213.708H105.746V219.475H112.091H112.667Z" fill="#3F3D56"/>
<path d="M112.091 224.089H105.746V229.856H112.667V224.089H112.091Z" fill="#3F3D56"/>
<path d="M124.202 213.708H117.281V219.475H124.202V213.708Z" fill="#3F3D56"/>
<path d="M124.202 224.089H117.281V229.856H124.202V224.089Z" fill="#3F3D56"/>
<path d="M76.9098 122.583H10.0088V136.425H76.9098V122.583Z" fill="#3F3D56"/>
<path d="M76.9098 150.267H10.0088V164.108H76.9098V150.267Z" fill="#3F3D56"/>
<path d="M76.9098 177.95H10.0088V191.792H76.9098V177.95Z" fill="#3F3D56"/>
<path d="M76.9098 205.633H10.0088V219.475H76.9098V205.633Z" fill="#3F3D56"/>
<path d="M137.204 254.947C135.705 255.722 134.311 256.685 133.057 257.814C131.781 256.68 130.364 255.716 128.84 254.947C127.341 255.722 125.947 256.685 124.692 257.814C123.417 256.68 122 255.716 120.476 254.947C120.476 254.947 113.975 258.144 113.993 262.052C113.993 262.15 113.998 262.247 114.006 262.343C114.228 264.902 120.95 265.554 124.643 264.348C127.376 265.128 130.273 265.128 133.007 264.348C136.683 265.573 143.542 264.871 143.743 262.283C143.75 262.187 143.754 262.089 143.753 261.992C143.735 258.084 137.204 254.947 137.204 254.947Z" fill="#F50057"/>
<path d="M107.177 119.7L101.409 115.086L133.706 86.2498H215.602V111.626L162.543 147.383L107.177 119.7Z" fill="#3F3D56"/>
<path d="M230.534 102.425V86.8257H219.661V90.6458L215.602 86.2498L189.073 115.086L178.692 122.007L162.595 239.608L186.87 263.883H243.286V116.24L230.534 102.425Z" fill="#CCCCCC"/>
<path d="M189.073 115.086H101.409V263.883H189.073V115.086Z" fill="#F2F2F2"/>
<path d="M151.585 227.549H135.437V263.883H151.585V227.549Z" fill="#CCCCCC"/>
<path d="M118.135 237.93V232.163H111.214V237.93H117.558H118.135Z" fill="#3F3D56"/>
<path d="M117.558 242.544H111.214V248.312H118.135V242.544H117.558Z" fill="#3F3D56"/>
<path d="M129.669 232.163H122.748V237.93H129.669V232.163Z" fill="#3F3D56"/>
<path d="M129.669 242.544H122.748V248.312H129.669V242.544Z" fill="#3F3D56"/>
<path d="M165.427 237.93V232.163H158.506V237.93H164.85H165.427Z" fill="#3F3D56"/>
<path d="M164.85 242.544H158.506V248.312H165.427V242.544H164.85Z" fill="#3F3D56"/>
<path d="M176.961 232.163H170.041V237.93H176.961V232.163Z" fill="#3F3D56"/>
<path d="M176.961 242.544H170.041V248.312H176.961V242.544Z" fill="#3F3D56"/>
<path d="M213.872 122.584V116.816H206.951V122.584H213.296H213.872Z" fill="#3F3D56"/>
<path d="M213.296 127.198H206.951V132.965H213.872V127.198H213.296Z" fill="#3F3D56"/>
<path d="M225.407 116.816H218.486V122.583H225.407V116.816Z" fill="#3F3D56"/>
<path d="M225.407 127.198H218.486V132.965H225.407V127.198Z" fill="#3F3D56"/>
<path d="M213.872 154.881V149.114H206.951V154.881H213.296H213.872Z" fill="#3F3D56"/>
<path d="M213.296 159.495H206.951V165.262H213.872V159.495H213.296Z" fill="#3F3D56"/>
<path d="M225.407 149.113H218.486V154.881H225.407V149.113Z" fill="#3F3D56"/>
<path d="M225.407 159.495H218.486V165.262H225.407V159.495Z" fill="#3F3D56"/>
<path d="M213.872 187.178V181.411H206.951V187.178H213.296H213.872Z" fill="#3F3D56"/>
<path d="M213.296 191.792H206.951V197.559H213.872V191.792H213.296Z" fill="#3F3D56"/>
<path d="M225.407 181.41H218.486V187.178H225.407V181.41Z" fill="#3F3D56"/>
<path d="M225.407 191.792H218.486V197.559H225.407V191.792Z" fill="#3F3D56"/>
<path d="M213.872 219.475V213.708H206.951V219.475H213.296H213.872Z" fill="#3F3D56"/>
<path d="M213.296 224.089H206.951V229.856H213.872V224.089H213.296Z" fill="#3F3D56"/>
<path d="M225.407 213.708H218.486V219.475H225.407V213.708Z" fill="#3F3D56"/>
<path d="M225.407 224.089H218.486V229.856H225.407V224.089Z" fill="#3F3D56"/>
<path d="M178.115 122.583H111.214V136.425H178.115V122.583Z" fill="#3F3D56"/>
<path d="M178.115 150.267H111.214V164.108H178.115V150.267Z" fill="#3F3D56"/>
<path d="M178.115 177.95H111.214V191.792H178.115V177.95Z" fill="#3F3D56"/>
<path d="M178.115 205.633H111.214V219.475H178.115V205.633Z" fill="#3F3D56"/>
<path d="M304.305 153.041H301.512V263.36H304.305V153.041Z" fill="#3F3D56"/>
<path d="M331.559 185.147C331.565 186.361 331.554 187.568 331.526 188.77C330.524 232.197 278.46 232.437 277.058 189.021C277.019 187.82 276.997 186.612 276.991 185.398C276.767 136.856 303.87 97.3782 303.87 97.3782C303.87 97.3782 331.336 136.604 331.559 185.147Z" fill="#6FCF97"/>
<path d="M294.591 254.702C293.092 255.477 291.698 256.441 290.443 257.569C289.168 256.435 287.751 255.472 286.227 254.702C284.728 255.477 283.334 256.441 282.079 257.569C280.804 256.435 279.386 255.472 277.863 254.702C277.863 254.702 271.361 257.9 271.379 261.807C271.38 261.905 271.384 262.002 271.393 262.099C271.615 264.657 278.337 265.309 282.029 264.103C284.763 264.883 287.66 264.883 290.393 264.103C294.07 265.328 300.929 264.626 301.129 262.039C301.137 261.942 301.14 261.845 301.14 261.747C301.122 257.84 294.591 254.702 294.591 254.702Z" fill="#CCCCCC"/>
<path d="M372.739 216.591L369.279 210.824L401.576 158.049H484.625V166.123L454.635 223.512L420.031 230.433L372.739 216.591Z" fill="#3F3D56"/>
<path d="M498.921 199.386V156.247H488.048V161.938L484.625 158.049L456.942 210.824L452.328 215.438L446.561 238.507L456.942 263.883H510.001V211.977L498.921 199.386Z" fill="#CCCCCC"/>
<path d="M456.942 210.824H369.279V263.883H456.942V210.824Z" fill="#F2F2F2"/>
<path d="M444.831 227.549H426.375V243.698H444.831V227.549Z" fill="#3F3D56"/>
<path d="M418.878 226.972H402.729V263.883H418.878V226.972Z" fill="#CCCCCC"/>
<path d="M384.274 232.74V226.973H377.353V232.74H383.697H384.274Z" fill="#3F3D56"/>
<path d="M383.697 237.354H377.353V243.121H384.274V237.354H383.697Z" fill="#3F3D56"/>
<path d="M395.808 226.972H388.888V232.74H395.808V226.972Z" fill="#3F3D56"/>
<path d="M395.808 237.354H388.888V243.121H395.808V237.354Z" fill="#3F3D56"/>
<path d="M481.742 234.153V228.386H474.821V234.153H481.165H481.742Z" fill="#3F3D56"/>
<path d="M481.165 238.767H474.821V244.534H481.742V238.767H481.165Z" fill="#3F3D56"/>
<path d="M493.276 228.385H486.355V234.153H493.276V228.385Z" fill="#3F3D56"/>
<path d="M493.276 238.767H486.355V244.534H493.276V238.767Z" fill="#3F3D56"/>
<path d="M409.036 179.74L408.125 178.223L416.623 164.337H438.474V166.461L430.584 181.561L421.479 183.382L409.036 179.74Z" fill="#3F3D56"/>
<path d="M438.474 164.337L431.191 178.223L429.977 179.437L428.459 185.507L431.191 192.183H445.151V178.526L438.474 164.337Z" fill="#CCCCCC"/>
<path d="M431.191 178.223H408.125V192.183H431.191V178.223Z" fill="#F2F2F2"/>
<path d="M417.897 184.239V181.485H414.593V184.239H417.622H417.897Z" fill="#3F3D56"/>
<path d="M417.622 186.442H414.593V189.195H417.897V186.442H417.622Z" fill="#3F3D56"/>
<path d="M423.405 181.485H420.1V184.238H423.405V181.485Z" fill="#3F3D56"/>
<path d="M423.405 186.441H420.1V189.195H423.405V186.441Z" fill="#3F3D56"/>
<path d="M477.29 216.591L473.829 210.824L506.126 158.049H589.176V166.123L559.186 223.512L524.582 230.433L477.29 216.591Z" fill="#3F3D56"/>
<path d="M603.472 199.386V156.247H592.599V161.938L589.176 158.049L561.493 210.824L556.879 215.438L551.111 238.507L561.493 263.883H614.552V211.977L603.472 199.386Z" fill="#CCCCCC"/>
<path d="M561.493 210.824H473.829V263.883H561.493V210.824Z" fill="#F2F2F2"/>
<path d="M549.381 227.549H530.926V243.698H549.381V227.549Z" fill="#3F3D56"/>
<path d="M523.428 226.972H507.28V263.883H523.428V226.972Z" fill="#CCCCCC"/>
<path d="M488.824 232.74V226.972H481.903V232.74H488.248H488.824Z" fill="#3F3D56"/>
<path d="M488.248 237.354H481.903V243.121H488.824V237.354H488.248Z" fill="#3F3D56"/>
<path d="M500.359 226.972H493.438V232.74H500.359V226.972Z" fill="#3F3D56"/>
<path d="M500.359 237.354H493.438V243.121H500.359V237.354Z" fill="#3F3D56"/>
<path d="M586.292 233.317V227.549H579.371V233.317H585.715H586.292Z" fill="#3F3D56"/>
<path d="M585.715 237.93H579.371V243.698H586.292V237.93H585.715Z" fill="#3F3D56"/>
<path d="M597.827 227.549H590.906V233.316H597.827V227.549Z" fill="#3F3D56"/>
<path d="M597.827 237.93H590.906V243.698H597.827V237.93Z" fill="#3F3D56"/>
<path d="M578.495 216.591L575.034 210.824L607.331 158.049H690.381V166.123L660.391 223.512L625.787 230.433L578.495 216.591Z" fill="#3F3D56"/>
<path d="M704.677 199.386V156.247H693.804V161.938L690.381 158.049L662.698 210.824L658.084 215.438L652.316 238.507L662.698 263.883H715.757V211.977L704.677 199.386Z" fill="#CCCCCC"/>
<path d="M662.698 210.824H575.034V263.883H662.698V210.824Z" fill="#F2F2F2"/>
<path d="M650.586 227.549H632.131V243.698H650.586V227.549Z" fill="#3F3D56"/>
<path d="M624.633 226.972H608.485V263.883H624.633V226.972Z" fill="#CCCCCC"/>
<path d="M590.029 232.74V226.972H583.109V232.74H589.453H590.029Z" fill="#3F3D56"/>
<path d="M589.453 237.354H583.109V243.121H590.029V237.354H589.453Z" fill="#3F3D56"/>
<path d="M601.564 226.972H594.643V232.74H601.564V226.972Z" fill="#3F3D56"/>
<path d="M601.564 237.354H594.643V243.121H601.564V237.354Z" fill="#3F3D56"/>
<path d="M687.497 233.317V227.549H680.576V233.317H686.921H687.497Z" fill="#3F3D56"/>
<path d="M686.921 237.93H680.576V243.698H687.497V237.93H686.921Z" fill="#3F3D56"/>
<path d="M699.032 227.549H692.111V233.316H699.032V227.549Z" fill="#3F3D56"/>
<path d="M699.032 237.93H692.111V243.698H699.032V237.93Z" fill="#3F3D56"/>
<path d="M511.077 180.577L510.167 179.059L518.664 165.173H540.516V167.298L532.625 182.398L523.52 184.218L511.077 180.577Z" fill="#3F3D56"/>
<path d="M540.516 165.173L533.232 179.059L532.018 180.273L530.501 186.343L533.232 193.02H547.193V179.363L540.516 165.173Z" fill="#CCCCCC"/>
<path d="M533.232 179.059H510.167V193.02H533.232V179.059Z" fill="#F2F2F2"/>
<path d="M519.939 185.075V182.321H516.634V185.075H519.663H519.939Z" fill="#3F3D56"/>
<path d="M519.663 187.278H516.634V190.032H519.939V187.278H519.663Z" fill="#3F3D56"/>
<path d="M525.446 182.321H522.141V185.075H525.446V182.321Z" fill="#3F3D56"/>
<path d="M525.446 187.278H522.141V190.032H525.446V187.278Z" fill="#3F3D56"/>
<path d="M613.119 179.74L612.208 178.223L620.706 164.337H642.557V166.461L634.666 181.561L625.562 183.382L613.119 179.74Z" fill="#3F3D56"/>
<path d="M642.557 164.337L635.273 178.223L634.059 179.437L632.542 185.507L635.273 192.183H649.234V178.526L642.557 164.337Z" fill="#CCCCCC"/>
<path d="M635.273 178.223H612.208V192.183H635.273V178.223Z" fill="#F2F2F2"/>
<path d="M621.98 184.239V181.485H618.676V184.239H621.705H621.98Z" fill="#3F3D56"/>
<path d="M621.705 186.442H618.676V189.195H621.98V186.442H621.705Z" fill="#3F3D56"/>
<path d="M627.487 181.485H624.183V184.238H627.487V181.485Z" fill="#3F3D56"/>
<path d="M627.487 186.441H624.183V189.195H627.487V186.441Z" fill="#3F3D56"/>
<path d="M683.045 216.591L679.585 210.824L711.882 158.049H794.932V166.123L764.941 223.512L730.337 230.433L683.045 216.591Z" fill="#3F3D56"/>
<path d="M809.228 165.451V156.247H798.354V161.938L794.932 158.049L767.248 210.824L762.634 215.438L756.867 238.507L767.248 263.883H820.308V211.977L809.228 165.451Z" fill="#CCCCCC"/>
<path d="M767.248 210.824H679.585V263.883H767.248V210.824Z" fill="#F2F2F2"/>
<path d="M755.137 227.549H736.682V243.698H755.137V227.549Z" fill="#3F3D56"/>
<path d="M729.184 226.972H713.035V263.883H729.184V226.972Z" fill="#CCCCCC"/>
<path d="M694.58 232.74V226.972H687.659V232.74H694.003H694.58Z" fill="#3F3D56"/>
<path d="M694.003 237.354H687.659V243.121H694.58V237.354H694.003Z" fill="#3F3D56"/>
<path d="M706.115 226.972H699.194V232.74H706.115V226.972Z" fill="#3F3D56"/>
<path d="M706.115 237.354H699.194V243.121H706.115V237.354Z" fill="#3F3D56"/>
<path d="M792.048 233.317V227.549H785.127V233.317H791.471H792.048Z" fill="#3F3D56"/>
<path d="M791.471 237.93H785.127V243.698H792.048V237.93H791.471Z" fill="#3F3D56"/>
<path d="M803.583 227.549H796.662V233.316H803.583V227.549Z" fill="#3F3D56"/>
<path d="M803.583 237.93H796.662V243.698H803.583V237.93Z" fill="#3F3D56"/>
<path d="M715.16 180.577L714.25 179.059L722.747 165.173H744.599V167.298L736.708 182.398L727.603 184.218L715.16 180.577Z" fill="#3F3D56"/>
<path d="M744.599 165.173L737.315 179.059L736.101 180.273L734.583 186.343L737.315 193.02H751.275V179.363L744.599 165.173Z" fill="#CCCCCC"/>
<path d="M737.315 179.059H714.25V193.02H737.315V179.059Z" fill="#F2F2F2"/>
<path d="M724.021 185.075V182.321H720.717V185.075H723.746H724.021Z" fill="#3F3D56"/>
<path d="M723.746 187.278H720.717V190.032H724.021V187.278H723.746Z" fill="#3F3D56"/>
<path d="M729.529 182.321H726.224V185.075H729.529V182.321Z" fill="#3F3D56"/>
<path d="M729.529 187.278H726.224V190.032H729.529V187.278Z" fill="#3F3D56"/>
<path d="M859.27 153.024H856.478V263.31H859.27V153.024Z" fill="#3F3D56"/>
<path d="M886.517 185.121C886.522 186.334 886.511 187.541 886.483 188.743C885.482 232.157 833.433 232.397 832.032 188.994C831.993 187.793 831.971 186.586 831.965 185.372C831.741 136.844 858.836 97.3782 858.836 97.3782C858.836 97.3782 886.293 136.592 886.517 185.121Z" fill="#6FCF97"/>
<path d="M667.697 245.642L676.042 258.044V250.456L672.808 245.648L667.697 245.642Z" fill="#F2F2F2"/>
<path d="M148.028 238.843C148.028 238.843 143.399 248.921 139.639 251.746C135.833 248.913 131.113 238.843 131.113 238.843C131.113 238.843 126.483 248.921 122.724 251.746C118.918 248.913 114.197 238.843 114.197 238.843C114.197 238.843 101.048 252.285 101.084 258.651C101.085 258.81 101.094 258.968 101.111 259.126C101.56 263.294 115.155 264.356 122.623 262.392C128.19 263.662 133.971 263.662 139.538 262.392C146.975 264.388 160.846 263.244 161.251 259.028C161.266 258.87 161.274 258.712 161.273 258.553C161.236 252.187 148.028 238.843 148.028 238.843Z" fill="#27AE60"/>
<path d="M424.268 238.843C424.268 238.843 419.638 248.921 415.879 251.746C412.073 248.913 407.352 238.843 407.352 238.843C407.352 238.843 402.722 248.921 398.963 251.746C395.157 248.913 390.437 238.843 390.437 238.843C390.437 238.843 377.288 252.285 377.324 258.651C377.325 258.81 377.334 258.968 377.351 259.126C377.8 263.294 391.394 264.356 398.862 262.392C404.429 263.662 410.211 263.662 415.778 262.392C423.214 264.388 437.085 263.244 437.491 259.028C437.506 258.87 437.513 258.712 437.512 258.553C437.476 252.187 424.268 238.843 424.268 238.843Z" fill="#27AE60"/>
<path d="M698.719 238.843C698.719 238.843 694.09 248.921 690.331 251.746C686.524 248.913 681.804 238.843 681.804 238.843C681.804 238.843 677.174 248.921 673.415 251.746C669.609 248.913 664.888 238.843 664.888 238.843C664.888 238.843 651.739 252.285 651.776 258.651C651.777 258.81 651.786 258.968 651.803 259.126C652.251 263.294 665.846 264.356 673.314 262.392C678.881 263.662 684.663 263.662 690.23 262.392C697.666 264.388 711.537 263.244 711.942 259.028C711.958 258.87 711.965 258.712 711.964 258.553C711.928 252.187 698.719 238.843 698.719 238.843Z" fill="#27AE60"/>
<path d="M414.737 45.2379L414.616 45.304C413.307 46.0198 411.84 46.3975 410.348 46.4028C408.856 46.408 407.387 46.0406 406.073 45.3339C405.997 45.2931 405.922 45.2528 405.847 45.2129C404.533 44.5116 403.066 44.1472 401.576 44.1523C400.087 44.1575 398.622 44.532 397.313 45.2424L397.2 45.304C395.891 46.0199 394.424 46.3976 392.932 46.4028C391.44 46.408 389.97 46.0407 388.656 45.334C388.578 45.2916 388.5 45.2497 388.422 45.2084C387.123 44.5103 385.673 44.1437 384.199 44.141C382.724 44.1384 381.272 44.4999 379.971 45.1934C375.997 47.3335 370.625 50.9925 370.649 55.1248C370.65 55.2882 370.659 55.4515 370.677 55.6139C371.139 59.9053 385.136 60.9988 392.825 58.9763C398.557 60.2842 404.51 60.2842 410.241 58.9763C417.898 61.0311 432.179 59.8539 432.597 55.5133C432.612 55.3507 432.62 55.1874 432.619 55.024C432.595 50.8895 427.176 47.2689 423.177 45.1589C421.872 44.4764 420.419 44.1265 418.947 44.1403C417.475 44.1541 416.029 44.5311 414.737 45.2379V45.2379Z" fill="#F7FAFC"/>
<path d="M594.522 1.85026L594.401 1.91626C593.092 2.63215 591.625 3.00986 590.133 3.0151C588.641 3.02034 587.171 2.65294 585.857 1.94625C585.781 1.90541 585.706 1.86509 585.631 1.82527C584.317 1.12394 582.85 0.759518 581.36 0.764659C579.871 0.769801 578.406 1.14434 577.097 1.85472L576.984 1.91629C575.675 2.63218 574.208 3.00989 572.716 3.01513C571.224 3.02037 569.755 2.65297 568.441 1.94628C568.362 1.90388 568.284 1.86204 568.206 1.82074C566.908 1.12261 565.457 0.755954 563.983 0.753337C562.509 0.750721 561.057 1.11223 559.756 1.80574C555.782 3.94581 550.41 7.60482 550.433 11.7371C550.434 11.9005 550.443 12.0637 550.461 12.2262C550.923 16.5176 564.92 17.611 572.609 15.5886C578.341 16.8965 584.294 16.8965 590.026 15.5886C597.682 17.6434 611.964 16.4662 612.381 12.1256C612.397 11.963 612.404 11.7997 612.403 11.6363C612.38 7.50182 606.96 3.88117 602.961 1.77121C601.657 1.08868 600.204 0.7388 598.732 0.75259C597.259 0.76638 595.813 1.14342 594.522 1.85026V1.85026Z" fill="#F7FAFC"/>
<path d="M2708 254.11C2706.5 254.885 2705.11 255.849 2703.85 256.977C2702.58 255.843 2701.16 254.88 2699.64 254.11C2698.14 254.885 2696.74 255.849 2695.49 256.977C2694.21 255.843 2692.8 254.88 2691.27 254.11C2691.27 254.11 2684.77 257.308 2684.79 261.215C2684.79 261.313 2684.79 261.41 2684.8 261.507C2685.02 264.065 2691.75 264.717 2695.44 263.511C2698.17 264.291 2701.07 264.291 2703.8 263.511C2707.48 264.736 2714.34 264.035 2714.54 261.447C2714.55 261.35 2714.55 261.253 2714.55 261.155C2714.53 257.248 2708 254.11 2708 254.11Z" fill="#F2F2F2"/>
<path d="M2241.46 119.174L2235.69 114.56L2267.98 85.7244H2349.88V111.1L2296.82 146.857L2241.46 119.174Z" fill="#3F3D56"/>
<path d="M2364.81 101.899V86.3004H2353.94V90.1204L2349.88 85.7244L2323.35 114.56L2312.97 121.481L2296.87 239.082L2321.15 263.357H2377.56V115.714L2364.81 101.899Z" fill="#CCCCCC"/>
<path d="M2323.35 114.561H2235.69V263.358H2323.35V114.561Z" fill="#F2F2F2"/>
<path d="M2285.86 227.024H2269.72V263.358H2285.86V227.024Z" fill="#CCCCCC"/>
<path d="M2252.41 237.404V231.637H2245.49V237.404H2251.84H2252.41Z" fill="#3F3D56"/>
<path d="M2251.84 242.018H2245.49V247.786H2252.41V242.018H2251.84Z" fill="#3F3D56"/>
<path d="M2263.95 231.637H2257.03V237.405H2263.95V231.637Z" fill="#3F3D56"/>
<path d="M2263.95 242.019H2257.03V247.786H2263.95V242.019Z" fill="#3F3D56"/>
<path d="M2299.71 237.404V231.637H2292.78V237.404H2299.13H2299.71Z" fill="#3F3D56"/>
<path d="M2299.13 242.018H2292.78V247.786H2299.71V242.018H2299.13Z" fill="#3F3D56"/>
<path d="M2311.24 231.637H2304.32V237.405H2311.24V231.637Z" fill="#3F3D56"/>
<path d="M2311.24 242.019H2304.32V247.786H2311.24V242.019Z" fill="#3F3D56"/>
<path d="M2348.15 122.059V116.291H2341.23V122.059H2347.57H2348.15Z" fill="#3F3D56"/>
<path d="M2347.57 126.672H2341.23V132.439H2348.15V126.672H2347.57Z" fill="#3F3D56"/>
<path d="M2359.69 116.291H2352.76V122.058H2359.69V116.291Z" fill="#3F3D56"/>
<path d="M2359.69 126.672H2352.76V132.439H2359.69V126.672Z" fill="#3F3D56"/>
<path d="M2348.15 154.355V148.588H2341.23V154.355H2347.57H2348.15Z" fill="#3F3D56"/>
<path d="M2347.57 158.969H2341.23V164.736H2348.15V158.969H2347.57Z" fill="#3F3D56"/>
<path d="M2359.69 148.588H2352.76V154.355H2359.69V148.588Z" fill="#3F3D56"/>
<path d="M2359.69 158.969H2352.76V164.737H2359.69V158.969Z" fill="#3F3D56"/>
<path d="M2348.15 186.652V180.885H2341.23V186.652H2347.57H2348.15Z" fill="#3F3D56"/>
<path d="M2347.57 191.266H2341.23V197.033H2348.15V191.266H2347.57Z" fill="#3F3D56"/>
<path d="M2359.69 180.885H2352.76V186.652H2359.69V180.885Z" fill="#3F3D56"/>
<path d="M2359.69 191.266H2352.76V197.033H2359.69V191.266Z" fill="#3F3D56"/>
<path d="M2348.15 218.949V213.182H2341.23V218.949H2347.57H2348.15Z" fill="#3F3D56"/>
<path d="M2347.57 223.563H2341.23V229.33H2348.15V223.563H2347.57Z" fill="#3F3D56"/>
<path d="M2359.69 213.182H2352.76V218.949H2359.69V213.182Z" fill="#3F3D56"/>
<path d="M2359.69 223.563H2352.76V229.331H2359.69V223.563Z" fill="#3F3D56"/>
<path d="M2312.39 122.058H2245.49V135.9H2312.39V122.058Z" fill="#3F3D56"/>
<path d="M2312.39 149.741H2245.49V163.583H2312.39V149.741Z" fill="#3F3D56"/>
<path d="M2312.39 177.425H2245.49V191.266H2312.39V177.425Z" fill="#3F3D56"/>
<path d="M2312.39 205.108H2245.49V218.949H2312.39V205.108Z" fill="#3F3D56"/>
<path d="M2372.69 254.421C2371.19 255.196 2369.8 256.16 2368.54 257.288C2367.26 256.155 2365.85 255.191 2364.32 254.421C2362.83 255.196 2361.43 256.16 2360.18 257.288C2358.9 256.155 2357.48 255.191 2355.96 254.421C2355.96 254.421 2349.46 257.619 2349.48 261.526C2349.48 261.624 2349.48 261.721 2349.49 261.818C2349.71 264.376 2356.43 265.028 2360.13 263.823C2362.86 264.602 2365.76 264.602 2368.49 263.823C2372.17 265.048 2379.03 264.346 2379.23 261.758C2379.23 261.661 2379.24 261.564 2379.24 261.466C2379.22 257.559 2372.69 254.421 2372.69 254.421Z" fill="#F50057"/>
<path d="M2342.66 119.174L2336.89 114.56L2369.19 85.7244H2451.09V111.1L2398.03 146.857L2342.66 119.174Z" fill="#3F3D56"/>
<path d="M2466.02 101.899V86.3004H2455.14V90.1204L2451.09 85.7244L2424.56 114.56L2414.18 121.481L2398.08 239.082L2422.35 263.357H2478.77V115.714L2466.02 101.899Z" fill="#CCCCCC"/>
<path d="M2424.56 114.561H2336.89V263.358H2424.56V114.561Z" fill="#F2F2F2"/>
<path d="M2387.07 227.024H2370.92V263.358H2387.07V227.024Z" fill="#CCCCCC"/>
<path d="M2353.62 237.404V231.637H2346.7V237.404H2353.04H2353.62Z" fill="#3F3D56"/>
<path d="M2353.04 242.018H2346.7V247.786H2353.62V242.018H2353.04Z" fill="#3F3D56"/>
<path d="M2365.15 231.637H2358.23V237.405H2365.15V231.637Z" fill="#3F3D56"/>
<path d="M2365.15 242.019H2358.23V247.786H2365.15V242.019Z" fill="#3F3D56"/>
<path d="M2400.91 237.404V231.637H2393.99V237.404H2400.33H2400.91Z" fill="#3F3D56"/>
<path d="M2400.33 242.018H2393.99V247.786H2400.91V242.018H2400.33Z" fill="#3F3D56"/>
<path d="M2412.45 231.637H2405.52V237.405H2412.45V231.637Z" fill="#3F3D56"/>
<path d="M2412.45 242.019H2405.52V247.786H2412.45V242.019Z" fill="#3F3D56"/>
<path d="M2449.36 122.059V116.291H2442.43V122.059H2448.78H2449.36Z" fill="#3F3D56"/>
<path d="M2448.78 126.672H2442.43V132.439H2449.36V126.672H2448.78Z" fill="#3F3D56"/>
<path d="M2460.89 116.291H2453.97V122.058H2460.89V116.291Z" fill="#3F3D56"/>
<path d="M2460.89 126.672H2453.97V132.439H2460.89V126.672Z" fill="#3F3D56"/>
<path d="M2449.36 154.355V148.588H2442.43V154.355H2448.78H2449.36Z" fill="#3F3D56"/>
<path d="M2448.78 158.969H2442.43V164.736H2449.36V158.969H2448.78Z" fill="#3F3D56"/>
<path d="M2460.89 148.588H2453.97V154.355H2460.89V148.588Z" fill="#3F3D56"/>
<path d="M2460.89 158.969H2453.97V164.737H2460.89V158.969Z" fill="#3F3D56"/>
<path d="M2449.36 186.652V180.885H2442.43V186.652H2448.78H2449.36Z" fill="#3F3D56"/>
<path d="M2448.78 191.266H2442.43V197.033H2449.36V191.266H2448.78Z" fill="#3F3D56"/>
<path d="M2460.89 180.885H2453.97V186.652H2460.89V180.885Z" fill="#3F3D56"/>
<path d="M2460.89 191.266H2453.97V197.033H2460.89V191.266Z" fill="#3F3D56"/>
<path d="M2449.36 218.949V213.182H2442.43V218.949H2448.78H2449.36Z" fill="#3F3D56"/>
<path d="M2448.78 223.563H2442.43V229.33H2449.36V223.563H2448.78Z" fill="#3F3D56"/>
<path d="M2460.89 213.182H2453.97V218.949H2460.89V213.182Z" fill="#3F3D56"/>
<path d="M2460.89 223.563H2453.97V229.331H2460.89V223.563Z" fill="#3F3D56"/>
<path d="M2413.6 122.058H2346.7V135.9H2413.6V122.058Z" fill="#3F3D56"/>
<path d="M2413.6 149.741H2346.7V163.583H2413.6V149.741Z" fill="#3F3D56"/>
<path d="M2413.6 177.425H2346.7V191.266H2413.6V177.425Z" fill="#3F3D56"/>
<path d="M2413.6 205.108H2346.7V218.949H2413.6V205.108Z" fill="#3F3D56"/>
<path d="M2145.14 153.041H2142.35V263.36H2145.14V153.041Z" fill="#3F3D56"/>
<path d="M2172.4 185.147C2172.4 186.361 2172.39 187.568 2172.36 188.77C2171.36 232.197 2119.3 232.437 2117.89 189.021C2117.86 187.82 2117.83 186.612 2117.83 185.398C2117.6 136.856 2144.71 97.3782 2144.71 97.3782C2144.71 97.3782 2172.17 136.604 2172.4 185.147Z" fill="#6FCF97"/>
<path d="M2135.43 254.702C2133.93 255.477 2132.53 256.441 2131.28 257.569C2130 256.435 2128.59 255.472 2127.06 254.702C2125.56 255.477 2124.17 256.441 2122.92 257.569C2121.64 256.435 2120.22 255.472 2118.7 254.702C2118.7 254.702 2112.2 257.9 2112.22 261.807C2112.22 261.905 2112.22 262.002 2112.23 262.099C2112.45 264.657 2119.17 265.309 2122.87 264.103C2125.6 264.883 2128.5 264.883 2131.23 264.103C2134.91 265.328 2141.77 264.626 2141.97 262.039C2141.97 261.942 2141.98 261.845 2141.98 261.747C2141.96 257.84 2135.43 254.702 2135.43 254.702Z" fill="#CCCCCC"/>
<path d="M2700.11 153.024H2697.31V263.31H2700.11V153.024Z" fill="#3F3D56"/>
<path d="M2727.35 185.121C2727.36 186.334 2727.35 187.541 2727.32 188.743C2726.32 232.157 2674.27 232.397 2672.87 188.994C2672.83 187.793 2672.81 186.586 2672.8 185.372C2672.58 136.844 2699.67 97.3782 2699.67 97.3782C2699.67 97.3782 2727.13 136.592 2727.35 185.121Z" fill="#6FCF97"/>
<path d="M1988.86 238.843C1988.86 238.843 1984.24 248.921 1980.48 251.746C1976.67 248.913 1971.95 238.843 1971.95 238.843C1971.95 238.843 1967.32 248.921 1963.56 251.746C1959.75 248.913 1955.03 238.843 1955.03 238.843C1955.03 238.843 1941.88 252.285 1941.92 258.651C1941.92 258.81 1941.93 258.968 1941.95 259.126C1942.4 263.294 1955.99 264.356 1963.46 262.392C1969.03 263.662 1974.81 263.662 1980.37 262.392C1987.81 264.388 2001.68 263.244 2002.09 259.028C2002.1 258.87 2002.11 258.712 2002.11 258.553C2002.07 252.187 1988.86 238.843 1988.86 238.843Z" fill="#27AE60"/>
<path d="M2265.1 238.843C2265.1 238.843 2260.47 248.921 2256.72 251.746C2252.91 248.913 2248.19 238.843 2248.19 238.843C2248.19 238.843 2243.56 248.921 2239.8 251.746C2235.99 248.913 2231.27 238.843 2231.27 238.843C2231.27 238.843 2218.12 252.285 2218.16 258.651C2218.16 258.81 2218.17 258.968 2218.19 259.126C2218.64 263.294 2232.23 264.356 2239.7 262.392C2245.27 263.662 2251.05 263.662 2256.61 262.392C2264.05 264.388 2277.92 263.244 2278.33 259.028C2278.34 258.87 2278.35 258.712 2278.35 258.553C2278.31 252.187 2265.1 238.843 2265.1 238.843Z" fill="#27AE60"/>
<path d="M2539.56 238.843C2539.56 238.843 2534.93 248.921 2531.17 251.746C2527.36 248.913 2522.64 238.843 2522.64 238.843C2522.64 238.843 2518.01 248.921 2514.25 251.746C2510.45 248.913 2505.72 238.843 2505.72 238.843C2505.72 238.843 2492.58 252.285 2492.61 258.651C2492.61 258.81 2492.62 258.968 2492.64 259.126C2493.09 263.294 2506.68 264.356 2514.15 262.392C2519.72 263.662 2525.5 263.662 2531.07 262.392C2538.5 264.388 2552.37 263.244 2552.78 259.028C2552.79 258.87 2552.8 258.712 2552.8 258.553C2552.76 252.187 2539.56 238.843 2539.56 238.843Z" fill="#27AE60"/>
<path d="M2255.57 45.2379L2255.45 45.304C2254.14 46.0198 2252.68 46.3975 2251.18 46.4028C2249.69 46.408 2248.22 46.0406 2246.91 45.3339C2246.83 45.2931 2246.76 45.2528 2246.68 45.2129C2245.37 44.5116 2243.9 44.1472 2242.41 44.1523C2240.92 44.1575 2239.46 44.532 2238.15 45.2424L2238.04 45.304C2236.73 46.0199 2235.26 46.3976 2233.77 46.4028C2232.28 46.408 2230.81 46.0407 2229.49 45.334C2229.41 45.2916 2229.34 45.2497 2229.26 45.2084C2227.96 44.5103 2226.51 44.1437 2225.04 44.141C2223.56 44.1384 2222.11 44.4999 2220.81 45.1934C2216.83 47.3335 2211.46 50.9925 2211.49 55.1248C2211.49 55.2882 2211.5 55.4515 2211.51 55.6139C2211.98 59.9053 2225.97 60.9988 2233.66 58.9763C2239.39 60.2842 2245.35 60.2842 2251.08 58.9763C2258.73 61.0311 2273.02 59.8539 2273.43 55.5133C2273.45 55.3507 2273.46 55.1874 2273.46 55.024C2273.43 50.8895 2268.01 47.2689 2264.01 45.1589C2262.71 44.4764 2261.26 44.1265 2259.78 44.1403C2258.31 44.1541 2256.87 44.5311 2255.57 45.2379V45.2379Z" fill="#F7FAFC"/>
<path d="M2435.36 1.85026L2435.24 1.91626C2433.93 2.63215 2432.46 3.00986 2430.97 3.0151C2429.48 3.02034 2428.01 2.65294 2426.69 1.94625C2426.62 1.90541 2426.54 1.86509 2426.47 1.82527C2425.15 1.12394 2423.69 0.759518 2422.2 0.764659C2420.71 0.769801 2419.24 1.14434 2417.93 1.85472L2417.82 1.91629C2416.51 2.63218 2415.04 3.00989 2413.55 3.01513C2412.06 3.02037 2410.59 2.65297 2409.28 1.94628C2409.2 1.90388 2409.12 1.86204 2409.04 1.82074C2407.74 1.12261 2406.29 0.755954 2404.82 0.753337C2403.35 0.750721 2401.89 1.11223 2400.59 1.80574C2396.62 3.94581 2391.25 7.60482 2391.27 11.7371C2391.27 11.9005 2391.28 12.0637 2391.3 12.2262C2391.76 16.5176 2405.76 17.611 2413.45 15.5886C2419.18 16.8965 2425.13 16.8965 2430.86 15.5886C2438.52 17.6434 2452.8 16.4662 2453.22 12.1256C2453.23 11.963 2453.24 11.7997 2453.24 11.6363C2453.22 7.50182 2447.8 3.88117 2443.8 1.77121C2442.49 1.08868 2441.04 0.7388 2439.57 0.75259C2438.1 0.76638 2436.65 1.14342 2435.36 1.85026V1.85026Z" fill="#F7FAFC"/>
<path d="M1787.58 254.11C1786.08 254.885 1784.69 255.849 1783.43 256.977C1782.16 255.843 1780.74 254.88 1779.22 254.11C1777.72 254.885 1776.33 255.849 1775.07 256.977C1773.8 255.843 1772.38 254.88 1770.85 254.11C1770.85 254.11 1764.35 257.308 1764.37 261.215C1764.37 261.313 1764.38 261.41 1764.38 261.507C1764.61 264.065 1771.33 264.717 1775.02 263.511C1777.75 264.291 1780.65 264.291 1783.38 263.511C1787.06 264.736 1793.92 264.035 1794.12 261.447C1794.13 261.35 1794.13 261.253 1794.13 261.155C1794.11 257.248 1787.58 254.11 1787.58 254.11Z" fill="#F2F2F2"/>
<path d="M1224.72 153.041H1221.93V263.36H1224.72V153.041Z" fill="#3F3D56"/>
<path d="M1251.98 185.147C1251.98 186.361 1251.97 187.568 1251.94 188.77C1250.94 232.197 1198.88 232.437 1197.48 189.021C1197.44 187.82 1197.42 186.612 1197.41 185.398C1197.19 136.856 1224.29 97.3782 1224.29 97.3782C1224.29 97.3782 1251.75 136.604 1251.98 185.147Z" fill="#6FCF97"/>
<path d="M1215.01 254.702C1213.51 255.477 1212.12 256.441 1210.86 257.569C1209.59 256.435 1208.17 255.472 1206.65 254.702C1205.15 255.477 1203.75 256.441 1202.5 257.569C1201.22 256.435 1199.8 255.472 1198.28 254.702C1198.28 254.702 1191.78 257.9 1191.8 261.807C1191.8 261.905 1191.8 262.002 1191.81 262.099C1192.03 264.657 1198.75 265.309 1202.45 264.103C1205.18 264.883 1208.08 264.883 1210.81 264.103C1214.49 265.328 1221.35 264.626 1221.55 262.039C1221.55 261.942 1221.56 261.845 1221.56 261.747C1221.54 257.84 1215.01 254.702 1215.01 254.702Z" fill="#CCCCCC"/>
<path d="M1506.71 233.317V227.549H1499.79V233.317H1506.13H1506.71Z" fill="#3F3D56"/>
<path d="M1506.13 237.93H1499.79V243.698H1506.71V237.93H1506.13Z" fill="#3F3D56"/>
<path d="M1518.24 227.549H1511.32V233.316H1518.24V227.549Z" fill="#3F3D56"/>
<path d="M1518.24 237.93H1511.32V243.698H1518.24V237.93Z" fill="#3F3D56"/>
<path d="M1498.91 216.591L1495.45 210.824L1527.75 158.049H1610.8V166.123L1580.81 223.512L1546.21 230.433L1498.91 216.591Z" fill="#3F3D56"/>
<path d="M1625.1 199.386V156.247H1614.22V161.938L1610.8 158.049L1583.12 210.824L1578.5 215.438L1572.73 238.507L1583.12 263.883H1636.18V211.977L1625.1 199.386Z" fill="#CCCCCC"/>
<path d="M1583.12 210.824H1495.45V263.883H1583.12V210.824Z" fill="#F2F2F2"/>
<path d="M1571 227.549H1552.55V243.698H1571V227.549Z" fill="#3F3D56"/>
<path d="M1545.05 226.972H1528.9V263.883H1545.05V226.972Z" fill="#CCCCCC"/>
<path d="M1510.45 232.74V226.972H1503.53V232.74H1509.87H1510.45Z" fill="#3F3D56"/>
<path d="M1509.87 237.354H1503.53V243.121H1510.45V237.354H1509.87Z" fill="#3F3D56"/>
<path d="M1521.98 226.972H1515.06V232.74H1521.98V226.972Z" fill="#3F3D56"/>
<path d="M1521.98 237.354H1515.06V243.121H1521.98V237.354Z" fill="#3F3D56"/>
<path d="M1607.92 233.317V227.549H1600.99V233.317H1607.34H1607.92Z" fill="#3F3D56"/>
<path d="M1607.34 237.93H1600.99V243.698H1607.92V237.93H1607.34Z" fill="#3F3D56"/>
<path d="M1619.45 227.549H1612.53V233.316H1619.45V227.549Z" fill="#3F3D56"/>
<path d="M1619.45 237.93H1612.53V243.698H1619.45V237.93Z" fill="#3F3D56"/>
<path d="M1049.25 216.591L1045.79 210.824L1078.09 158.049H1161.14V166.123L1131.15 223.512L1096.55 230.433L1049.25 216.591Z" fill="#3F3D56"/>
<path d="M1175.44 199.386V156.247H1164.56V161.938L1161.14 158.049L1133.46 210.824L1128.84 215.438L1123.08 238.507L1133.46 263.883H1186.52V211.977L1175.44 199.386Z" fill="#CCCCCC"/>
<path d="M1133.46 210.824H1045.79V263.883H1133.46V210.824Z" fill="#F2F2F2"/>
<path d="M1121.35 227.549H1102.89V243.698H1121.35V227.549Z" fill="#3F3D56"/>
<path d="M1095.39 226.972H1079.24V263.883H1095.39V226.972Z" fill="#CCCCCC"/>
<path d="M1060.79 232.74V226.973H1053.87V232.74H1060.21H1060.79Z" fill="#3F3D56"/>
<path d="M1060.21 237.354H1053.87V243.121H1060.79V237.354H1060.21Z" fill="#3F3D56"/>
<path d="M1072.32 226.972H1065.4V232.74H1072.32V226.972Z" fill="#3F3D56"/>
<path d="M1072.32 237.354H1065.4V243.121H1072.32V237.354Z" fill="#3F3D56"/>
<path d="M1158.26 234.153V228.386H1151.34V234.153H1157.68H1158.26Z" fill="#3F3D56"/>
<path d="M1157.68 238.767H1151.34V244.534H1158.26V238.767H1157.68Z" fill="#3F3D56"/>
<path d="M1169.79 228.385H1162.87V234.153H1169.79V228.385Z" fill="#3F3D56"/>
<path d="M1169.79 238.767H1162.87V244.534H1169.79V238.767Z" fill="#3F3D56"/>
<path d="M1085.55 179.74L1084.64 178.223L1093.14 164.337H1114.99V166.461L1107.1 181.561L1097.99 183.382L1085.55 179.74Z" fill="#3F3D56"/>
<path d="M1114.99 164.337L1107.71 178.223L1106.49 179.437L1104.97 185.507L1107.71 192.183H1121.67V178.526L1114.99 164.337Z" fill="#CCCCCC"/>
<path d="M1107.71 178.223H1084.64V192.183H1107.71V178.223Z" fill="#F2F2F2"/>
<path d="M1094.41 184.239V181.485H1091.11V184.239H1094.14H1094.41Z" fill="#3F3D56"/>
<path d="M1094.14 186.442H1091.11V189.195H1094.41V186.442H1094.14Z" fill="#3F3D56"/>
<path d="M1099.92 181.485H1096.62V184.238H1099.92V181.485Z" fill="#3F3D56"/>
<path d="M1099.92 186.441H1096.62V189.195H1099.92V186.441Z" fill="#3F3D56"/>
<path d="M1153.81 216.591L1150.34 210.824L1182.64 158.049H1265.69V166.123L1235.7 223.512L1201.1 230.433L1153.81 216.591Z" fill="#3F3D56"/>
<path d="M1279.99 199.386V156.247H1269.11V161.938L1265.69 158.049L1238.01 210.824L1233.39 215.438L1227.63 238.507L1238.01 263.883H1291.07V211.977L1279.99 199.386Z" fill="#CCCCCC"/>
<path d="M1238.01 210.824H1150.34V263.883H1238.01V210.824Z" fill="#F2F2F2"/>
<path d="M1225.9 227.549H1207.44V243.698H1225.9V227.549Z" fill="#3F3D56"/>
<path d="M1199.94 226.972H1183.79V263.883H1199.94V226.972Z" fill="#CCCCCC"/>
<path d="M1165.34 232.74V226.972H1158.42V232.74H1164.76H1165.34Z" fill="#3F3D56"/>
<path d="M1164.76 237.354H1158.42V243.121H1165.34V237.354H1164.76Z" fill="#3F3D56"/>
<path d="M1176.87 226.972H1169.95V232.74H1176.87V226.972Z" fill="#3F3D56"/>
<path d="M1176.87 237.354H1169.95V243.121H1176.87V237.354Z" fill="#3F3D56"/>
<path d="M1187.59 180.577L1186.68 179.059L1195.18 165.173H1217.03V167.298L1209.14 182.398L1200.04 184.218L1187.59 180.577Z" fill="#3F3D56"/>
<path d="M1217.03 165.173L1209.75 179.059L1208.53 180.273L1207.02 186.343L1209.75 193.02H1223.71V179.363L1217.03 165.173Z" fill="#CCCCCC"/>
<path d="M1209.75 179.059H1186.68V193.02H1209.75V179.059Z" fill="#F2F2F2"/>
<path d="M1196.45 185.075V182.321H1193.15V185.075H1196.18H1196.45Z" fill="#3F3D56"/>
<path d="M1196.18 187.278H1193.15V190.032H1196.45V187.278H1196.18Z" fill="#3F3D56"/>
<path d="M1201.96 182.321H1198.66V185.075H1201.96V182.321Z" fill="#3F3D56"/>
<path d="M1201.96 187.278H1198.66V190.032H1201.96V187.278Z" fill="#3F3D56"/>
<path d="M1533.54 179.74L1532.63 178.223L1541.12 164.337H1562.98V166.461L1555.08 181.561L1545.98 183.382L1533.54 179.74Z" fill="#3F3D56"/>
<path d="M1562.98 164.337L1555.69 178.223L1554.48 179.437L1552.96 185.507L1555.69 192.183H1569.65V178.526L1562.98 164.337Z" fill="#CCCCCC"/>
<path d="M1555.69 178.223H1532.63V192.183H1555.69V178.223Z" fill="#F2F2F2"/>
<path d="M1542.4 184.239V181.485H1539.09V184.239H1542.12H1542.4Z" fill="#3F3D56"/>
<path d="M1542.12 186.442H1539.09V189.195H1542.4V186.442H1542.12Z" fill="#3F3D56"/>
<path d="M1547.91 181.485H1544.6V184.238H1547.91V181.485Z" fill="#3F3D56"/>
<path d="M1547.91 186.441H1544.6V189.195H1547.91V186.441Z" fill="#3F3D56"/>
<path d="M1603.46 216.591L1600 210.824L1632.3 158.049H1715.35V166.123L1685.36 223.512L1650.76 230.433L1603.46 216.591Z" fill="#3F3D56"/>
<path d="M1729.65 165.451V156.247H1718.77V161.938L1715.35 158.049L1687.67 210.824L1683.05 215.438L1677.29 238.507L1687.67 263.883H1740.73V211.977L1729.65 165.451Z" fill="#CCCCCC"/>
<path d="M1687.67 210.824H1600V263.883H1687.67V210.824Z" fill="#F2F2F2"/>
<path d="M1675.56 227.549H1657.1V243.698H1675.56V227.549Z" fill="#3F3D56"/>
<path d="M1649.6 226.972H1633.45V263.883H1649.6V226.972Z" fill="#CCCCCC"/>
<path d="M1615 232.74V226.972H1608.08V232.74H1614.42H1615Z" fill="#3F3D56"/>
<path d="M1614.42 237.354H1608.08V243.121H1615V237.354H1614.42Z" fill="#3F3D56"/>
<path d="M1626.53 226.972H1619.61V232.74H1626.53V226.972Z" fill="#3F3D56"/>
<path d="M1626.53 237.354H1619.61V243.121H1626.53V237.354Z" fill="#3F3D56"/>
<path d="M1712.47 233.317V227.549H1705.55V233.317H1711.89H1712.47Z" fill="#3F3D56"/>
<path d="M1711.89 237.93H1705.55V243.698H1712.47V237.93H1711.89Z" fill="#3F3D56"/>
<path d="M1724 227.549H1717.08V233.316H1724V227.549Z" fill="#3F3D56"/>
<path d="M1724 237.93H1717.08V243.698H1724V237.93Z" fill="#3F3D56"/>
<path d="M1635.58 180.577L1634.67 179.059L1643.17 165.173H1665.02V167.298L1657.13 182.398L1648.02 184.218L1635.58 180.577Z" fill="#3F3D56"/>
<path d="M1665.02 165.173L1657.73 179.059L1656.52 180.273L1655 186.343L1657.73 193.02H1671.69V179.363L1665.02 165.173Z" fill="#CCCCCC"/>
<path d="M1657.73 179.059H1634.67V193.02H1657.73V179.059Z" fill="#F2F2F2"/>
<path d="M1644.44 185.075V182.321H1641.14V185.075H1644.16H1644.44Z" fill="#3F3D56"/>
<path d="M1644.16 187.278H1641.14V190.032H1644.44V187.278H1644.16Z" fill="#3F3D56"/>
<path d="M1649.95 182.321H1646.64V185.075H1649.95V182.321Z" fill="#3F3D56"/>
<path d="M1649.95 187.278H1646.64V190.032H1649.95V187.278Z" fill="#3F3D56"/>
<path d="M1779.69 153.024H1776.9V263.31H1779.69V153.024Z" fill="#3F3D56"/>
<path d="M1806.93 185.121C1806.94 186.334 1806.93 187.541 1806.9 188.743C1805.9 232.157 1753.85 232.397 1752.45 188.994C1752.41 187.793 1752.39 186.586 1752.38 185.372C1752.16 136.844 1779.25 97.3782 1779.25 97.3782C1779.25 97.3782 1806.71 136.592 1806.93 185.121Z" fill="#6FCF97"/>
<path d="M1588.12 245.642L1596.46 258.044V250.456L1593.23 245.648L1588.12 245.642Z" fill="#F2F2F2"/>
<path d="M1344.69 238.843C1344.69 238.843 1340.06 248.921 1336.3 251.746C1332.49 248.913 1327.77 238.843 1327.77 238.843C1327.77 238.843 1323.14 248.921 1319.38 251.746C1315.58 248.913 1310.85 238.843 1310.85 238.843C1310.85 238.843 1297.71 252.285 1297.74 258.651C1297.74 258.81 1297.75 258.968 1297.77 259.126C1298.22 263.294 1311.81 264.356 1319.28 262.392C1324.85 263.662 1330.63 263.662 1336.2 262.392C1343.63 264.388 1357.5 263.244 1357.91 259.028C1357.92 258.87 1357.93 258.712 1357.93 258.553C1357.89 252.187 1344.69 238.843 1344.69 238.843Z" fill="#27AE60"/>
<path d="M1619.14 238.843C1619.14 238.843 1614.51 248.921 1610.75 251.746C1606.94 248.913 1602.22 238.843 1602.22 238.843C1602.22 238.843 1597.59 248.921 1593.83 251.746C1590.03 248.913 1585.31 238.843 1585.31 238.843C1585.31 238.843 1572.16 252.285 1572.19 258.651C1572.19 258.81 1572.2 258.968 1572.22 259.126C1572.67 263.294 1586.26 264.356 1593.73 262.392C1599.3 263.662 1605.08 263.662 1610.65 262.392C1618.08 264.388 1631.96 263.244 1632.36 259.028C1632.38 258.87 1632.38 258.712 1632.38 258.553C1632.35 252.187 1619.14 238.843 1619.14 238.843Z" fill="#27AE60"/>
<path d="M1335.16 45.2379L1335.03 45.304C1333.73 46.0198 1332.26 46.3975 1330.77 46.4028C1329.27 46.408 1327.81 46.0406 1326.49 45.3339C1326.42 45.2931 1326.34 45.2528 1326.27 45.2129C1324.95 44.5116 1323.48 44.1472 1321.99 44.1523C1320.51 44.1575 1319.04 44.532 1317.73 45.2424L1317.62 45.304C1316.31 46.0199 1314.84 46.3976 1313.35 46.4028C1311.86 46.408 1310.39 46.0407 1309.07 45.334C1309 45.2916 1308.92 45.2497 1308.84 45.2084C1307.54 44.5103 1306.09 44.1437 1304.62 44.141C1303.14 44.1384 1301.69 44.4999 1300.39 45.1934C1296.42 47.3335 1291.04 50.9925 1291.07 55.1248C1291.07 55.2882 1291.08 55.4515 1291.09 55.6139C1291.56 59.9053 1305.55 60.9988 1313.24 58.9763C1318.98 60.2842 1324.93 60.2842 1330.66 58.9763C1338.32 61.0311 1352.6 59.8539 1353.02 55.5133C1353.03 55.3507 1353.04 55.1874 1353.04 55.024C1353.01 50.8895 1347.59 47.2689 1343.6 45.1589C1342.29 44.4764 1340.84 44.1265 1339.37 44.1403C1337.89 44.1541 1336.45 44.5311 1335.16 45.2379V45.2379Z" fill="#F7FAFC"/>
<path d="M1514.94 1.85026L1514.82 1.91626C1513.51 2.63215 1512.04 3.00986 1510.55 3.0151C1509.06 3.02034 1507.59 2.65294 1506.28 1.94625C1506.2 1.90541 1506.12 1.86509 1506.05 1.82527C1504.74 1.12394 1503.27 0.759518 1501.78 0.764659C1500.29 0.769801 1498.82 1.14434 1497.52 1.85472L1497.4 1.91629C1496.09 2.63218 1494.63 3.00989 1493.13 3.01513C1491.64 3.02037 1490.17 2.65297 1488.86 1.94628C1488.78 1.90388 1488.7 1.86204 1488.62 1.82074C1487.33 1.12261 1485.88 0.755954 1484.4 0.753337C1482.93 0.750721 1481.47 1.11223 1480.17 1.80574C1476.2 3.94581 1470.83 7.60482 1470.85 11.7371C1470.85 11.9005 1470.86 12.0637 1470.88 12.2262C1471.34 16.5176 1485.34 17.611 1493.03 15.5886C1498.76 16.8965 1504.71 16.8965 1510.44 15.5886C1518.1 17.6434 1532.38 16.4662 1532.8 12.1256C1532.81 11.963 1532.82 11.7997 1532.82 11.6363C1532.8 7.50182 1527.38 3.88117 1523.38 1.77121C1522.07 1.08868 1520.62 0.7388 1519.15 0.75259C1517.68 0.76638 1516.23 1.14342 1514.94 1.85026V1.85026Z" fill="#F7FAFC"/>
</svg>
