<svg version="1" xmlns="http://www.w3.org/2000/svg" width="533.333" height="533.333" viewBox="0 0 400.000000 400.000000"><path d="M71 98.5c0 5.2.2 5.5 2.4 5.5 1.9 0 2.5.6 2.8 2.7.2 2.2.9 2.9 3.1 3.1 2.6.3 2.7.6 2.7 5.8 0 5.1-.2 5.4-2.4 5.4-1.9 0-2.5.6-2.8 2.7-.2 2.2-.9 2.9-3 3.1-2.2.3-2.8.9-2.8 2.8 0 2-.5 2.4-3 2.4-2.7 0-3 .3-3 3 0 2.5-.4 3-2.4 3-2.2 0-2.5.5-3.1 5.5-.7 4.9-1 5.5-3.1 5.5s-2.3.5-2.6 5.7c-.3 5.1-.6 5.8-2.5 6.1-1.8.3-2.3 1.2-2.9 5.8-.6 4.8-.9 5.4-3 5.4-2.2 0-2.4.4-2.4 4.2 0 2.4-.3 6-.6 8-.6 3.2-1.1 3.8-3 3.8-2.3 0-2.4.2-2.4 8.5v8.5h-3c-2.7 0-3 .3-3 3 0 2.5-.4 3-2.5 3-2.2 0-2.5.4-2.5 3.9 0 2.1-.3 5.9-.6 8.5-.6 4-1 4.6-3 4.6s-2.4.5-2.4 3 .4 3 2.3 3h2.4l.7 26.4c.4 14.5.4 28.2 0 30.5-.6 3.5-1 4.1-3 4.1H20v40h3c2.5 0 3 .4 3 2.5 0 2.3.4 2.5 4.3 2.5 2.3 0 5.9.3 7.9.6 3.7.6 3.7.7 4 5.8.3 4.7.5 5.1 3 5.4 2.1.3 2.7.9 3 3 .2 1.9 1 2.8 2.5 3 1.4.2 2.3 1.1 2.5 2.5.2 1.6 1.1 2.3 3.1 2.5 2.1.3 2.7.9 2.7 2.7 0 2.1.6 2.4 6 3 5.5.6 6 .9 6 3.1v2.4h33v-2.4c0-2.2.5-2.5 6-3.1 5.5-.6 6-.9 6-3.1 0-1.9.5-2.4 2.4-2.4s2.5-.6 2.8-2.8c.2-2.1.9-2.8 3.1-3 2.3-.3 2.7-.8 2.7-3.3 0-2.4.4-2.9 2.4-2.9 2.2 0 2.5-.5 3.1-5.5l.7-5.5H262v6c0 5.7.1 6 2.5 6 2 0 2.5.5 2.5 2.5 0 2.1.5 2.5 3 2.5 2.7 0 3 .3 3 3s.3 3 3 3c2.5 0 3 .4 3 2.4 0 2.2.5 2.5 5.5 3.1 4.9.7 5.5 1 5.5 3.1v2.4h34v-2.4c0-2.2.5-2.5 5.5-3.1 4.8-.6 5.5-1 5.5-3s.7-2.4 5.5-3l5.5-.6v-5c0-4.8.1-4.9 3-4.9h3v-12h8.5c8.3 0 8.5 0 8.5-2.4 0-1.9.6-2.5 2.8-2.8 2.1-.2 2.8-.9 3-3 .3-2.2.9-2.8 2.8-2.8h2.4v-32.9l-2.7-.3c-2.3-.2-2.9-.8-3.1-3.6-.3-2.6-.7-3.2-2.7-3.2h-2.4l-.3-13.8-.3-13.7-2.7-.3c-2.6-.3-2.8-.6-2.8-5.3 0-4.6-.2-4.9-2.5-4.9s-2.5.4-2.5 4.2c0 2.4-.3 6-.6 8-.6 3.2-1.1 3.8-3 3.8s-2.4-.5-2.4-2.4c0-2.1-.6-2.4-5.4-3-5-.7-5.5-1-5.8-3.4-.2-2.1-.9-2.8-3-3-2.6-.3-2.8-.6-2.8-5.3 0-4.8-.1-4.9-3-4.9-2.7 0-3-.3-3-3 0-2.9-.2-3-4.2-3-8 0-11.7-1.1-12-3.4-.3-1.9-1-2.1-8.5-2.4-8.1-.3-8.3-.3-8.3-2.7 0-2.4-.3-2.5-6.2-2.5-3.5 0-10-.3-14.5-.7-7.9-.6-8.3-.7-8.3-2.9s-.4-2.4-5.6-2.4h-5.7l.7-3.8c.3-2 .6-4.5.6-5.5 0-1.5 1.1-1.7 8-1.7 7.9 0 8 0 8 2.5v2.5h22v-2.4c0-2.3-.4-2.5-5.2-2.8l-5.3-.3-.3-4c-.6-9.9-1.3-12.5-3.3-12.5-1.4 0-1.9-.7-1.9-3 0-2.5-.4-3-2.4-3-2.2 0-2.5-.5-3.1-5.5-.7-4.9-1-5.5-3-5.5-2.1 0-2.4-.6-3-5.5-.7-4.9-1-5.5-3.1-5.5-2 0-2.4-.5-2.4-3 0-2.7-.3-3-3-3-3 0-3-.1-3-5.5s0-5.5-3-5.5c-2.5 0-3-.4-3-2.5 0-2-.5-2.5-2.5-2.5-2.1 0-2.5-.5-2.5-3 0-2.7-.3-3-3-3s-3-.3-3-3c0-2.5-.4-3-2.5-3-2 0-2.5-.5-2.5-2.5 0-2.1-.5-2.5-3-2.5-2.7 0-3-.3-3-3 0-3-.1-3-5.5-3-5.2 0-5.5-.2-5.5-2.4 0-1.9-.6-2.5-2.7-2.8-2.2-.2-2.9-.9-3.1-3.1-.3-2.1-.9-2.7-2.8-2.7s-2.4.5-2.4 2.5c0 2.1-.5 2.5-3 2.5s-3-.4-3-2.4v-2.4l-16.4-.4c-9-.2-25.5-.2-36.5 0l-20.1.4v2.4c0 2.4-.1 2.4-11 2.4h-11v-2.5c0-2.2-.4-2.5-3.5-2.5s-3.5.3-3.5 2.5c0 1.8-.5 2.5-2 2.5s-2-.7-2-2.5c0-2.2-.4-2.5-3.5-2.5-3.2 0-3.5-.2-3.5-3 0-2.5-.4-3-2.5-3s-2.5-.5-2.5-3c0-2.7-.3-3-3-3-2.5 0-3-.4-3-2.5 0-2-.5-2.5-2.5-2.5-2.4 0-2.5.3-2.5 5.5zm113.4 17.1c3.5.5 4.6 1.1 4.6 2.4 0 1.9 4.2 3 11.8 3 3.8 0 4.2.2 4.2 2.5 0 2.1.5 2.5 3 2.5 2.7 0 3 .3 3 3s.3 3 3 3 3 .3 3 3 .3 3 3 3c2.5 0 3 .4 3 2.5 0 2 .5 2.5 2.5 2.5 2.1 0 2.5.5 2.5 3s.4 3 2.4 3c2.1 0 2.4.6 3.1 5.5.6 5 .9 5.5 3.1 5.5s2.4.3 2.4 5.5-.1 5.5-2.5 5.5c-2 0-2.5-.5-2.5-2.5 0-2.4-.3-2.5-6-2.5s-6 .1-6 2.5-.3 2.5-5.5 2.5-5.5-.1-5.5-2.5c0-2.1-.5-2.5-3-2.5s-3 .4-3 2.5c0 2.3-.3 2.5-5 2.5s-5-.2-5-2.5V166h-79v2.5c0 2.1-.5 2.5-3 2.5h-3v-11c0-10.9 0-11 2.4-11 2.3 0 2.4-.3 3.1-10.9.7-10.9.7-11 3.4-11.3 2-.2 2.7-.9 2.9-3.1.3-2.7.4-2.7 8.3-2.7h7.9v-6h20.9c11.4 0 22.9.3 25.5.6zm-79.6 2.6c-.2 1.7-1.1 2.4-3 2.6-2.4.3-2.8 0-2.8-2.2s.4-2.6 3.1-2.6c2.6 0 3 .3 2.7 2.2zM93 123.5c0 2-.5 2.5-2.5 2.5s-2.5-.5-2.5-2.5.5-2.5 2.5-2.5 2.5.5 2.5 2.5zm152 51c0 2-.5 2.5-2.5 2.5s-2.5-.5-2.5-2.5.5-2.5 2.5-2.5 2.5.5 2.5 2.5zm0 17c0 2.4-.3 2.5-5.5 2.5s-5.5-.1-5.5-2.5.3-2.5 5.5-2.5 5.5.1 5.5 2.5zm-38.6 14.1c3.5.5 4.6 1.1 4.6 2.5 0 1.5 1.1 1.9 6 2.5 6.5.7 6.5.7 5.4 7.6l-.7 3.8H194v-4.8l-45.2-.7c-24.9-.4-60.3-.5-78.6-.4l-33.2.4v-2.8c0-2.3.4-2.7 3-2.7 2.5 0 3-.4 3-2.4 0-1.9.6-2.6 2.8-2.9 4.5-.7 155.6-.7 160.6-.1zm-104.6 56.1c7.8.6 8.2.7 8.2 2.9 0 1.9.5 2.4 2.5 2.4 1.7 0 2.5.6 2.5 1.7 0 1 .3 3.5.6 5.5.6 3.7.6 3.8-2.5 3.8-2.6 0-3.1-.4-3.1-2.5 0-2.2-.4-2.5-3.9-2.5-8 0-13.1-1.2-13.1-3 0-1.3-1.1-1.9-4-2.4-5.9-.9-12 .3-12 2.4 0 1.8-5.1 3-13.1 3-3.5 0-3.9-.3-3.9-2.4s.6-2.5 5-3.1c4.3-.6 5-1 5-2.9 0-1.3.3-2.6.7-2.9.8-.9 20.2-.9 31.1 0zm217.6-.1c3.9.6 4.6 1 4.6 3 0 1.7.6 2.3 2.8 2.6 2.1.2 2.7.8 2.7 2.8v2.5l-22.2.3-22.3.2v2.5c0 2.4-.3 2.5-6 2.5s-6-.1-6-2.5c0-2.1.5-2.5 3-2.5 2.7 0 3-.3 3-3s.3-3 3-3c2.5 0 3-.4 3-2.4 0-2.3.4-2.5 5.3-2.9 9.8-.7 24.4-.7 29.1-.1zM143 286.5c0 1.8-.5 2.5-2 2.5s-2-.7-2-2.5.5-2.5 2-2.5 2 .7 2 2.5zm-50 22.9c0 1.9.6 2.5 2.8 2.8 2.1.2 2.8.9 3 3 .3 2.5 0 2.8-2.7 2.8-2.6 0-3.1.4-3.1 2.5 0 2.5-.1 2.5-8.5 2.5H76v-5.5c0-5.4 0-5.5 3-5.5 2.5 0 3-.4 3-2.5 0-2.4.3-2.5 5.5-2.5s5.5.2 5.5 2.4zm219 .1c0 2.1.5 2.5 3 2.5 2.7 0 3 .3 3 3 0 2.5-.4 3-2.5 3-2 0-2.5.5-2.5 2.5 0 2.5-.1 2.5-8.5 2.5H296v-5.5c0-5.2.1-5.5 2.5-5.5 2 0 2.5-.5 2.5-2.5 0-2.4.3-2.5 5.5-2.5s5.5.1 5.5 2.5zM110 343c0 2.5-.4 3-2.5 3s-2.5-.5-2.5-3 .4-3 2.5-3 2.5.5 2.5 3zm180 0c0 1.5-.7 2-2.5 2s-2.5-.5-2.5-2 .7-2 2.5-2 2.5.5 2.5 2zm39 .5c0 2-.5 2.5-2.5 2.5s-2.5.5-2.5 2.5c0 2.1-.5 2.5-3 2.5-2.7 0-3 .3-3 3v3h-22v-2.5c0-2.4.2-2.5 7.3-2.5 11.5 0 14.7-.8 14.7-3.6 0-2 .5-2.4 3-2.4s3-.4 3-2.5c0-2 .5-2.5 2.5-2.5s2.5.5 2.5 2.5zm-253 5c0 2-.5 2.5-2.5 2.5s-2.5-.5-2.5-2.5.5-2.5 2.5-2.5 2.5.5 2.5 2.5zm28 0c0 2.1-.5 2.5-3 2.5-2.7 0-3 .3-3 3v3H76v-2.5c0-2.4.2-2.5 7.3-2.5 11.5 0 14.7-.8 14.7-3.6 0-2 .5-2.4 3-2.4s3 .4 3 2.5zm192 0c0 2.1-.5 2.5-3 2.5s-3-.4-3-2.5.5-2.5 3-2.5 3 .4 3 2.5z"/><path d="M296 219.5c0 2.5.1 2.5 8 2.5s8 0 8-2.5-.1-2.5-8-2.5-8 0-8 2.5zM318.7 222.6c-.4.4-.7 1.6-.7 2.6 0 1.3.8 1.8 3.1 1.8 2.6 0 3-.3 2.7-2.3-.3-2.2-3.6-3.6-5.1-2.1zM329 230.5c0 2.1.5 2.5 3 2.5s3-.4 3-2.5-.5-2.5-3-2.5-3 .4-3 2.5zM352 247.5c0 2 .5 2.5 2.5 2.5s2.5-.5 2.5-2.5-.5-2.5-2.5-2.5-2.5.5-2.5 2.5z"/></svg>